<svg width="32" height="32" viewBox="0 0 32 32" fill="none" xmlns="http://www.w3.org/2000/svg">
<g clip-path="url(#clip0_49_4)">
<mask id="mask0_49_4" style="mask-type:luminance" maskUnits="userSpaceOnUse" x="0" y="0" width="32" height="32">
<path d="M32 0H0V32H32V0Z" fill="white"/>
</mask>
<g mask="url(#mask0_49_4)">
<path d="M32 0H0V32H32V0Z" fill="#F5F5F5"/>
<path d="M6.9393 10.1716H10.5176V21.9359H6.9393V10.1716ZM11.269 17.815V14.1386L14.0958 10.1716H17.9962L13.7559 15.7118L18.0498 21.9359H14.0422L11.269 17.815Z" fill="black"/>
<path d="M0.49585 16.0684C0.49585 13.0785 1.20128 10.3963 2.61214 8.02199C4.02301 5.61832 5.93994 3.74229 8.36294 2.3939C10.8166 1.0455 13.531 0.3713 16.5061 0.3713C20.0026 0.3713 23.0543 1.17741 25.6613 2.78962C28.2684 4.40184 30.17 6.68825 31.3661 9.64886H26.3514C25.462 7.80214 24.1738 6.38046 22.4869 5.38382C20.8307 4.38718 18.8371 3.88886 16.5061 3.88886C14.2671 3.88886 12.2581 4.38718 10.4792 5.38382C8.70032 6.38046 7.3048 7.80214 6.29265 9.64886C5.28051 11.4663 4.77444 13.6061 4.77444 16.0684C4.77444 18.5014 5.28051 20.6412 6.29265 22.4879C7.3048 24.3053 8.70032 25.7124 10.4792 26.709C12.2581 27.7057 14.2671 28.204 16.5061 28.204C18.8371 28.204 20.8307 27.7203 22.4869 26.753C24.1738 25.7563 25.462 24.3347 26.3514 22.4879H31.3661C30.17 25.4192 28.2684 27.691 25.6613 29.3032C23.0543 30.8861 20.0026 31.6776 16.5061 31.6776C13.531 31.6776 10.8166 31.018 8.36294 29.6989C5.93994 28.3505 4.02301 26.4892 2.61214 24.1148C1.20128 21.7405 0.49585 19.0583 0.49585 16.0684Z" fill="#751966"/>
<path d="M17.9808 10.6846V10.1716H21.2728L26.4256 20.6363L25.8351 21.9359H23.5093L17.9808 10.6846ZM28.0895 16.9942H28.0179L26.8192 19.7643L25.2805 16.618L28.0895 10.1716H31.4888V21.9359H28.0895V16.9942ZM17.9808 12.3774L21.2728 19.0803V21.9359H17.9808V12.3774Z" fill="black"/>
</g>
</g>
<defs>
<clipPath id="clip0_49_4">
<rect width="32" height="32" fill="white"/>
</clipPath>
</defs>
</svg>
